<svg width="44" height="45" viewBox="0 0 44 45" fill="none" xmlns="http://www.w3.org/2000/svg">
<g clip-path="url(#clip0_706_13305)">
<path d="M22 18.5C23.1 18.5 24 17.6 24 16.5C24 15.4 23.1 14.5 22 14.5C20.9 14.5 20 15.4 20 16.5C20 17.6 20.9 18.5 22 18.5ZM22 20.5C20.9 20.5 20 21.4 20 22.5C20 23.6 20.9 24.5 22 24.5C23.1 24.5 24 23.6 24 22.5C24 21.4 23.1 20.5 22 20.5ZM22 26.5C20.9 26.5 20 27.4 20 28.5C20 29.6 20.9 30.5 22 30.5C23.1 30.5 24 29.6 24 28.5C24 27.4 23.1 26.5 22 26.5Z" fill="#9E9E9E"/>
</g>
<rect x="0.5" y="1" width="43" height="43" rx="21.5" stroke="#9E9E9E"/>
<defs>
<clipPath id="clip0_706_13305">
<rect width="24" height="24" fill="white" transform="translate(10 10.5)"/>
</clipPath>
</defs>
</svg>
