<svg width="40" height="40" viewBox="0 0 40 40" fill="none" xmlns="http://www.w3.org/2000/svg">
<g clip-path="url(#clip0_2002_37065)">
<path d="M12.5 24.55V27.0833C12.5 27.3167 12.6833 27.5 12.9167 27.5H15.45C15.5583 27.5 15.6667 27.4583 15.7417 27.375L24.8417 18.2833L21.7167 15.1583L12.625 24.25C12.5417 24.3333 12.5 24.4333 12.5 24.55ZM27.2583 15.8667C27.5833 15.5417 27.5833 15.0167 27.2583 14.6917L25.3083 12.7417C24.9833 12.4167 24.4583 12.4167 24.1333 12.7417L22.6083 14.2667L25.7333 17.3917L27.2583 15.8667V15.8667Z" fill="#9E9E9E"/>
</g>
<rect x="0.5" y="0.5" width="39" height="39" rx="19.5" stroke="#9E9E9E"/>
<defs>
<clipPath id="clip0_2002_37065">
<rect width="20" height="20" fill="white" transform="translate(10 10)"/>
</clipPath>
</defs>
</svg>
