<svg width="40" height="40" viewBox="0 0 40 40" fill="none" xmlns="http://www.w3.org/2000/svg">
<g clip-path="url(#clip0_2002_37069)">
<path d="M15.0013 25.8333C15.0013 26.75 15.7513 27.5 16.668 27.5H23.3346C24.2513 27.5 25.0013 26.75 25.0013 25.8333V17.5C25.0013 16.5833 24.2513 15.8333 23.3346 15.8333H16.668C15.7513 15.8333 15.0013 16.5833 15.0013 17.5V25.8333ZM25.0013 13.3333H22.918L22.3263 12.7417C22.1763 12.5917 21.9596 12.5 21.743 12.5H18.2596C18.043 12.5 17.8263 12.5917 17.6763 12.7417L17.0846 13.3333H15.0013C14.543 13.3333 14.168 13.7083 14.168 14.1667C14.168 14.625 14.543 15 15.0013 15H25.0013C25.4596 15 25.8346 14.625 25.8346 14.1667C25.8346 13.7083 25.4596 13.3333 25.0013 13.3333Z" fill="#F01E19"/>
</g>
<rect x="0.5" y="0.5" width="39" height="39" rx="19.5" stroke="#F01E19"/>
<defs>
<clipPath id="clip0_2002_37069">
<rect width="20" height="20" fill="white" transform="translate(10 10)"/>
</clipPath>
</defs>
</svg>
