<svg width="45" height="45" viewBox="0 0 45 45" fill="none" xmlns="http://www.w3.org/2000/svg">
<g clip-path="url(#clip0_1106_20901)">
<path d="M22.834 14.5C17.834 14.5 13.564 17.61 11.834 22C13.564 26.39 17.834 29.5 22.834 29.5C27.834 29.5 32.104 26.39 33.834 22C32.104 17.61 27.834 14.5 22.834 14.5ZM22.834 27C20.074 27 17.834 24.76 17.834 22C17.834 19.24 20.074 17 22.834 17C25.594 17 27.834 19.24 27.834 22C27.834 24.76 25.594 27 22.834 27ZM22.834 19C21.174 19 19.834 20.34 19.834 22C19.834 23.66 21.174 25 22.834 25C24.494 25 25.834 23.66 25.834 22C25.834 20.34 24.494 19 22.834 19Z" fill="#263859"/>
</g>
<rect x="1.33398" y="1" width="43" height="43" rx="21.5" stroke="#263859"/>
<defs>
<clipPath id="clip0_1106_20901">
<rect width="24" height="24" fill="white" transform="translate(10.834 10.5)"/>
</clipPath>
</defs>
</svg>
