<svg width="80" height="80" viewBox="0 0 80 80" fill="none" xmlns="http://www.w3.org/2000/svg">
<circle cx="40" cy="40" r="40" fill="url(#paint0_linear_203_2355)"/>
<g clip-path="url(#clip0_203_2355)">
<path d="M54.1668 38.9446C52.2572 37.6142 49.9404 36.9978 47.6221 37.2034C45.3038 37.409 43.1317 38.4234 41.486 40.0691C39.8403 41.7149 38.8258 43.887 38.6202 46.2053C38.4146 48.5236 39.031 50.8403 40.3614 52.75H27.2502C26.8744 52.75 26.5141 52.6007 26.2484 52.3351C25.9828 52.0694 25.8335 51.7091 25.8335 51.3333V28.6667C25.8335 28.2909 25.9828 27.9306 26.2484 27.6649C26.5141 27.3993 26.8744 27.25 27.2502 27.25H37.7533L40.5867 30.0833H52.7502C53.1259 30.0833 53.4862 30.2326 53.7519 30.4983C54.0176 30.7639 54.1668 31.1243 54.1668 31.5V38.9446ZM48.5002 54.1667C46.6215 54.1667 44.8199 53.4204 43.4915 52.092C42.1631 50.7636 41.4168 48.962 41.4168 47.0833C41.4168 45.2047 42.1631 43.403 43.4915 42.0747C44.8199 40.7463 46.6215 40 48.5002 40C50.3788 40 52.1805 40.7463 53.5088 42.0747C54.8372 43.403 55.5835 45.2047 55.5835 47.0833C55.5835 48.962 54.8372 50.7636 53.5088 52.092C52.1805 53.4204 50.3788 54.1667 48.5002 54.1667ZM46.6684 50.9197C47.4617 51.2992 48.3531 51.4233 49.2199 51.2749C50.0867 51.1265 50.8861 50.7129 51.5079 50.0911C52.1298 49.4693 52.5434 48.6699 52.6918 47.8031C52.8402 46.9363 52.716 46.0448 52.3365 45.2516L46.6684 50.9183V50.9197ZM44.6638 48.9151L50.3319 43.2484C49.5386 42.8689 48.6472 42.7447 47.7804 42.8931C46.9136 43.0415 46.1142 43.4552 45.4924 44.077C44.8706 44.6988 44.457 45.4982 44.3086 46.365C44.1602 47.2318 44.2843 48.1232 44.6638 48.9165V48.9151Z" fill="white"/>
</g>
<defs>
<linearGradient id="paint0_linear_203_2355" x1="40" y1="-19" x2="39.4287" y2="153.998" gradientUnits="userSpaceOnUse">
<stop stop-color="#FC8B6A"/>
<stop offset="0.995368" stop-color="#E10467" stop-opacity="0.999613"/>
</linearGradient>
<clipPath id="clip0_203_2355">
<rect width="34" height="34" fill="white" transform="translate(23 23)"/>
</clipPath>
</defs>
</svg>
