<svg width="44" height="45" viewBox="0 0 44 45" fill="none" xmlns="http://www.w3.org/2000/svg">
<rect y="0.5" width="44" height="44" rx="22" fill="#F9A5A3" fill-opacity="0.2"/>
<g clip-path="url(#clip0_1128_9877)">
<path d="M28.2987 16.21C27.9087 15.82 27.2787 15.82 26.8887 16.21L21.9988 21.09L17.1088 16.2C16.7188 15.81 16.0888 15.81 15.6987 16.2C15.3088 16.59 15.3088 17.22 15.6987 17.61L20.5888 22.5L15.6987 27.39C15.3088 27.78 15.3088 28.41 15.6987 28.8C16.0888 29.19 16.7188 29.19 17.1088 28.8L21.9988 23.91L26.8887 28.8C27.2787 29.19 27.9087 29.19 28.2987 28.8C28.6887 28.41 28.6887 27.78 28.2987 27.39L23.4087 22.5L28.2987 17.61C28.6787 17.23 28.6787 16.59 28.2987 16.21Z" fill="#F01E19"/>
</g>
<defs>
<clipPath id="clip0_1128_9877">
<rect width="24" height="24" fill="white" transform="translate(10 10.5)"/>
</clipPath>
</defs>
</svg>
