<svg width="42" height="42" viewBox="0 0 42 42" fill="none" xmlns="http://www.w3.org/2000/svg">
<rect x="0.5" y="0.5" width="41" height="41" rx="20.5" fill="#0ABC5D"/>
<g clip-path="url(#clip0_1102_20181)">
<path d="M27 22H22V27C22 27.55 21.55 28 21 28C20.45 28 20 27.55 20 27V22H15C14.45 22 14 21.55 14 21C14 20.45 14.45 20 15 20H20V15C20 14.45 20.45 14 21 14C21.55 14 22 14.45 22 15V20H27C27.55 20 28 20.45 28 21C28 21.55 27.55 22 27 22Z" fill="white"/>
</g>
<defs>
<clipPath id="clip0_1102_20181">
<rect width="24" height="24" fill="white" transform="translate(9 9)"/>
</clipPath>
</defs>
</svg>
