<svg width="60" height="61" viewBox="0 0 60 61" fill="none" xmlns="http://www.w3.org/2000/svg">
<g clip-path="url(#clip0_1066_15025)">
<path d="M36 31.5H31V36.5C31 37.05 30.55 37.5 30 37.5C29.45 37.5 29 37.05 29 36.5V31.5H24C23.45 31.5 23 31.05 23 30.5C23 29.95 23.45 29.5 24 29.5H29V24.5C29 23.95 29.45 23.5 30 23.5C30.55 23.5 31 23.95 31 24.5V29.5H36C36.55 29.5 37 29.95 37 30.5C37 31.05 36.55 31.5 36 31.5Z" fill="#263859"/>
</g>
<rect x="0.5" y="1" width="59" height="59" rx="29.5" stroke="#263859" stroke-dasharray="5 5"/>
<defs>
<clipPath id="clip0_1066_15025">
<rect width="24" height="24" fill="white" transform="translate(18 18.5)"/>
</clipPath>
</defs>
</svg>
