<svg width="44" height="45" viewBox="0 0 44 45" fill="none" xmlns="http://www.w3.org/2000/svg">
<rect y="0.5" width="44" height="44" rx="22" fill="#263859"/>
<g clip-path="url(#clip0_333_5401)">
<path d="M13 27.9596V30.9996C13 31.2796 13.22 31.4996 13.5 31.4996H16.54C16.67 31.4996 16.8 31.4496 16.89 31.3496L27.81 20.4396L24.06 16.6896L13.15 27.5996C13.05 27.6996 13 27.8196 13 27.9596ZM30.71 17.5396C31.1 17.1496 31.1 16.5196 30.71 16.1296L28.37 13.7896C27.98 13.3996 27.35 13.3996 26.96 13.7896L25.13 15.6196L28.88 19.3696L30.71 17.5396V17.5396Z" fill="white"/>
</g>
<defs>
<clipPath id="clip0_333_5401">
<rect width="24" height="24" fill="white" transform="translate(10 10.5)"/>
</clipPath>
</defs>
</svg>
