<svg width="42" height="41" viewBox="0 0 42 41" fill="none" xmlns="http://www.w3.org/2000/svg">
<rect x="0.5" width="41" height="41" rx="20.5" fill="#E0E0E0"/>
<g clip-path="url(#clip0_334_5497)">
<path d="M27.2997 14.2097C26.9097 13.8197 26.2797 13.8197 25.8897 14.2097L20.9997 19.0897L16.1097 14.1997C15.7197 13.8097 15.0897 13.8097 14.6997 14.1997C14.3097 14.5897 14.3097 15.2197 14.6997 15.6097L19.5897 20.4997L14.6997 25.3897C14.3097 25.7797 14.3097 26.4097 14.6997 26.7997C15.0897 27.1897 15.7197 27.1897 16.1097 26.7997L20.9997 21.9097L25.8897 26.7997C26.2797 27.1897 26.9097 27.1897 27.2997 26.7997C27.6897 26.4097 27.6897 25.7797 27.2997 25.3897L22.4097 20.4997L27.2997 15.6097C27.6797 15.2297 27.6797 14.5897 27.2997 14.2097Z" fill="#9E9E9E"/>
</g>
<defs>
<clipPath id="clip0_334_5497">
<rect width="24" height="24" fill="white" transform="translate(9 8.5)"/>
</clipPath>
</defs>
</svg>
