<svg width="40" height="40" viewBox="0 0 40 40" fill="none" xmlns="http://www.w3.org/2000/svg">
<g clip-path="url(#clip0_2002_37061)">
<path d="M19.9987 13.3333C15.832 13.3333 12.2737 15.9249 10.832 19.5833C12.2737 23.2416 15.832 25.8333 19.9987 25.8333C24.1654 25.8333 27.7237 23.2416 29.1654 19.5833C27.7237 15.9249 24.1654 13.3333 19.9987 13.3333ZM19.9987 23.7499C17.6987 23.7499 15.832 21.8833 15.832 19.5833C15.832 17.2833 17.6987 15.4166 19.9987 15.4166C22.2987 15.4166 24.1654 17.2833 24.1654 19.5833C24.1654 21.8833 22.2987 23.7499 19.9987 23.7499ZM19.9987 17.0833C18.6154 17.0833 17.4987 18.1999 17.4987 19.5833C17.4987 20.9666 18.6154 22.0833 19.9987 22.0833C21.382 22.0833 22.4987 20.9666 22.4987 19.5833C22.4987 18.1999 21.382 17.0833 19.9987 17.0833Z" fill="#9E9E9E"/>
</g>
<rect x="0.5" y="0.5" width="39" height="39" rx="19.5" stroke="#9E9E9E"/>
<defs>
<clipPath id="clip0_2002_37061">
<rect width="20" height="20" fill="white" transform="translate(10 10)"/>
</clipPath>
</defs>
</svg>
